<svg t="1689560821682" class="icon" viewBox="0 0 1024 1024" version="1.1" xmlns="http://www.w3.org/2000/svg" p-id="3424"
  width="200" height="200">
  <path
    d="M512 18.285714C784.676571 18.285714 1005.714286 239.323429 1005.714286 512S784.676571 1005.714286 512 1005.714286 18.285714 784.676571 18.285714 512 239.323429 18.285714 512 18.285714z m328.923429 295.424L297.910857 830.829714A382.208 382.208 0 0 0 512 896c212.077714 0 384-171.922286 384-384 0-72.557714-20.114286-140.434286-55.076571-198.290286zM512 128C299.922286 128 128 299.922286 128 512c0 81.773714 25.563429 157.549714 69.12 219.794286L746.898286 208.237714A382.354286 382.354286 0 0 0 512 128z"
    fill="#909592" p-id="3425"></path>
</svg>